inDegrees=yes
name=ik_data_2024_11_07_18_54
DataType=double
version=3
OpenSimVersion=4.5.1
endheader
time	pelvis_tilt	pelvis_list	pelvis_rotation	pelvis_tx	pelvis_ty	pelvis_tz	hip_flexion_r	hip_adduction_r	hip_rotation_r	knee_angle_r	knee_angle_r_beta	ankle_angle_r	subtalar_angle_r	mtp_angle_r	hip_flexion_l	hip_adduction_l	hip_rotation_l	knee_angle_l	knee_angle_l_beta	ankle_angle_l	subtalar_angle_l	mtp_angle_l	lumbar_extension	lumbar_bending	lumbar_rotation	arm_flex_r	arm_add_r	arm_rot_r	elbow_flex_r	pro_sup_r	wrist_flex_r	wrist_dev_r	arm_flex_l	arm_add_l	arm_rot_l	elbow_flex_l	pro_sup_l	wrist_flex_l	wrist_dev_l
10.07535	-0.3978250933826338	-3.017446397925016	-28.97935631717442	0	0.9399999999999999	0	33.29056766708491	8.693873737969566	1.500377954243207	19.35684530022871	0.3378406832881812	-5.092916872511241	0	0	-0.8615078340819979	-2.882861728329427	-9.251622419798609	0.5195435764613072	0.009067746016836721	-5.092916872511241	0	0	0	0	0	0	-9.331954044337055	0	74.11173190896703	45.25825457865504	0	0	0	-9.331954044337055	0	74.11173190896703	45.25825457865504	0	0
10.08175	-0.2625290090357906	-3.429382931217533	-30.28584151603589	0	0.9399999999999999	0	33.53806391355349	9.757573749382395	2.177097069728367	19.61221738178023	0.3422977669289267	-5.092801100323851	0	0	-1.262510381432084	-3.145336753354562	-10.56602344644523	0.4940391563982786	0.008622609912925171	-5.092801100323851	0	0	0	0	0	0	-9.33276498927744	0	74.1119781243555	45.25805855757216	0	0	0	-9.33276498927744	0	74.1119781243555	45.25805855757216	0	0
10.13791	-0.2147360716770539	-3.9767246662152	-31.96440930863908	0	0.9399999999999999	0	33.99097023966229	11.0512523738781	3.061020131260439	19.82283265934222	0.3459736969773852	-5.092663635391643	0	0	-1.685534775414699	-3.547491440155415	-12.26877003843036	0.4891044599386191	0.008536483212117606	-5.092663635391643	0	0	0	0	0	0	-9.333722943610127	0	74.11226949587184	45.25782601830146	0	0	0	-9.333722943610127	0	74.11226949587184	45.25782601830146	0	0
10.20004	-0.2425044513246612	-4.264489324822871	-32.86987131228643	0	0.9399999999999999	0	34.66622675016401	11.75191485876757	3.383018453886314	20.16735713808702	0.3519867834851992	-5.092498561681286	0	0	-1.866842194925089	-3.78068413091664	-13.17845197885437	0.4979104553528125	0.008690176826010802	-5.092498561681286	0	0	0	0	0	0	-9.334864525049291	0	74.1126176192198	45.2575471773264	0	0	0	-9.334864525049291	0	74.1126176192198	45.2575471773264	0	0
10.25346	-0.1691882553470959	-4.668818333938513	-34.14634426105371	0	0.9399999999999999	0	35.12829677204611	12.83828158584394	3.886482869681241	20.89775071289576	0.3647345562010233	-5.092329500571388	0	0	-2.234177086083623	-4.034128388975784	-14.47733943326635	0.4994082780966635	0.008716318764502259	-5.092329500571388	0	0	0	0	0	0	-9.336043790573029	0	74.1129764076306	45.25726093433531	0	0	0	-9.336043790573029	0	74.1129764076306	45.25726093433531	0	0
10.26169	0.3350007774888704	-4.619670596588779	-33.98280749770362	0	0.9399999999999999	0	35.27717654552087	12.07775626542615	3.842739165790073	22.24214800088837	0.3881987153313766	-5.091980031455734	0	0	-2.617146934666146	-3.704145967948507	-14.33986368728995	0.5005444587251381	0.008736148857366519	-5.091980031455734	0	0	0	0	0	0	-9.338518114799436	0	74.11372734217596	45.25666594396105	0	0	0	-9.338518114799436	0	74.11372734217596	45.25666594396105	0	0
10.31984	0.3150257928488089	-5.089101313283316	-35.47766424620965	0	0.9399999999999999	0	35.42578180277699	13.37127068654442	4.628772118420982	22.48121719905195	0.3923712599794339	-5.091862872935554	0	0	-2.972643818841448	-4.031870198660241	-15.85220302155462	0.5019630985095185	0.008760908792503739	-5.091862872935554	0	0	0	0	0	0	-9.339350147722666	0	74.11397932445473	45.2564665650352	0	0	0	-9.339350147722666	0	74.11397932445473	45.2564665650352	0	0
10.36992	0.6610300874494059	-5.148821978108878	-35.55238571708441	0	0.9399999999999999	0	35.50580235047101	12.97486983158868	4.76631174946219	23.11326484182636	0.4034025723753163	-5.091760468850389	0	0	-3.270621782669364	-3.896923860209743	-15.96129791299751	0.5422176144976495	0.009463482635293324	-5.091760468850389	0	0	0	0	0	0	-9.340072370652273	0	74.11419859816849	45.25629249745376	0	0	0	-9.340072370652273	0	74.11419859816849	45.25629249745376	0	0
10.43577	1.051944811164299	-4.916349201689197	-34.92033051638622	0	0.9399999999999999	0	35.56186833417388	12.3805760819308	4.395796242437373	23.51792296554559	0.4104651889791596	-5.09163315340427	0	0	-3.427299102664976	-3.505674555191956	-15.32683362920767	0.5296279538723018	0.009243751605672318	-5.09163315340427	0	0	0	0	0	0	-9.340990675855917	0	74.11447552365591	45.25607495406157	0	0	0	-9.340990675855917	0	74.11447552365591	45.25607495406157	0	0
10.44127	1.351020390472258	-4.714869518972319	-34.21133253046514	0	0.9399999999999999	0	35.74842188764777	11.62608029386878	3.986654466896063	23.80963321772812	0.4155564933415675	-5.091507732883883	0	0	-3.51629494272624	-3.20881301898899	-14.61656336875396	0.5246565657402572	0.00915698451437357	-5.091507732883883	0	0	0	0	0	0	-9.341903664422659	0	74.11475016097705	45.25586012788941	0	0	0	-9.341903664422659	0	74.11475016097705	45.25586012788941	0	0
10.49665	1.625937963922813	-4.651412269106539	-34.07097114581998	0	0.9399999999999999	0	35.31789096742548	11.96084680458405	3.872629335562971	24.15900735267918	0.4216542223177706	-5.091339336195138	0	0	-3.699738946064891	-3.013712490434771	-14.4928126523091	0.5169231475250958	0.0090220109040853	-5.091339336195138	0	0	0	0	0	0	-9.343074456341169	0	74.11510733904737	45.25557465167089	0	0	0	-9.343074456341169	0	74.11510733904737	45.25557465167089	0	0
10.55554	1.65156602666862	-4.482797444086562	-33.56389490526062	0	0.9399999999999999	0	35.05896075325606	12.17281439767406	3.556791855890213	23.44266032995091	0.4091516081843036	-5.09119611514534	0	0	-3.603593219813885	-2.897366406795913	-13.9761464126789	0.505775588345257	0.008827449292836194	-5.09119611514534	0	0	0	0	0	0	-9.344078792832111	0	74.11541301610494	45.25533130499365	0	0	0	-9.344078792832111	0	74.11541301610494	45.25533130499365	0	0
10.62049	1.814679885106198	-4.210681624350018	-32.74086666339522	0	0.9399999999999999	0	34.96198071957199	11.84015235216127	3.029981513989104	23.17186853610451	0.4044253997943023	-5.091053390416451	0	0	-3.536236850611987	-2.625704564381689	-13.15238425962115	0.52008934964092	0.009077271555790042	-5.091053390416451	0	0	0	0	0	0	-9.345089853153842	0	74.11571986480166	45.25508817078362	0	0	0	-9.345089853153842	0	74.11571986480166	45.25508817078362	0	0
10.62371	1.69180447680573	-3.965457094219447	-31.97716174392475	0	0.9399999999999999	0	34.74741322633343	11.65568271318602	2.562552192348849	22.74103713879351	0.3969059733902573	-5.090914976574227	0	0	-3.268809518628117	-2.532475182754015	-12.37133253888199	0.5206132905028483	0.009086416048916428	-5.090914976574227	0	0	0	0	0	0	-9.346067916176599	0	74.1160169845394	45.25485245869505	0	0	0	-9.346067916176599	0	74.1160169845394	45.25485245869505	0	0
10.66946	1.376160233244083	-3.761374826177604	-31.30542400610151	0	0.9399999999999999	0	34.75098408315088	11.25567427284825	2.24358408098188	21.97861805035872	0.3835992500170165	-5.090782839398527	0	0	-2.860741150755064	-2.565337348367491	-11.6717924864146	0.5258784563342302	0.009178310528337548	-5.090782839398527	0	0	0	0	0	0	-9.347021524457492	0	74.1163049459086	45.25462624564037	0	0	0	-9.347021524457492	0	74.1163049459086	45.25462624564037	0	0
10.73818	1.420993656236654	-3.333057917169929	-29.94775980833814	0	0.9399999999999999	0	34.32670596162689	9.916395508372331	1.635279087525931	21.93357352942268	0.3828130748166992	-5.090629681901047	0	0	-2.620482659241536	-2.239524064723681	-10.30234696630424	0.5384638551058453	0.00939796717457868	-5.090629681901047	0	0	0	0	0	0	-9.348106379148062	0	74.11663443417331	45.25436512746587	0	0	0	-9.348106379148062	0	74.11663443417331	45.25436512746587	0	0
10.80015	1.409169537647517	-3.0529268246966	-29.12517890026104	0	0.9399999999999999	0	33.35555934535429	8.532666734547623	1.624323389375341	21.90655166803871	0.3823414543655314	-5.090285045279832	0	0	-2.457157076077475	-2.031471784424479	-9.467052220842438	0.5126780255753082	0.008947919548912824	-5.090285045279832	0	0	0	0	0	0	-9.350539054083335	0	74.11737527992575	45.25377699648143	0	0	0	-9.350539054083335	0	74.11737527992575	45.25377699648143	0	0
